<?xml version="1.0" encoding="utf-8"?>
<!-- Generator: Adobe Illustrator 19.0.1, SVG Export Plug-In . SVG Version: 6.00 Build 0)  -->
<svg version="1.1" id="Слой_2" xmlns="http://www.w3.org/2000/svg" xmlns:xlink="http://www.w3.org/1999/xlink" x="0px" y="0px"
	 viewBox="0 0 567.2 560" style="enable-background:new 0 0 567.2 560;" xml:space="preserve">
<style type="text/css">
	.st0{fill:#BCBBBC;}
	.st1{fill:#F48023;}
</style>
<polygon class="st0" points="117.6,334 152.6,334 152.6,441 397.6,441 397.6,335 432.6,335 432.6,477 117.6,477 "/>
<rect x="188.6" y="370.7" class="st1" width="175" height="34.8"/>
<rect x="196.1" y="309.6" transform="matrix(0.9779 0.2092 -0.2092 0.9779 74.6954 -52.0954)" class="st1" width="175" height="34.8"/>
<rect x="214.2" y="247.9" transform="matrix(0.9073 0.4204 -0.4204 0.9073 139.5146 -102.2704)" class="st1" width="175" height="34.8"/>
<rect x="250.1" y="191.1" transform="matrix(0.7603 0.6496 -0.6496 0.7603 216.3772 -169.3105)" class="st1" width="175" height="34.8"/>
<rect x="301" y="145.8" transform="matrix(0.5776 0.8163 -0.8163 0.5776 297.2862 -248.177)" class="st1" width="175" height="34.8"/>
</svg>
